<?xml version="1.0" encoding="UTF-8"?>
<svg version="1.1" xmlns="http://www.w3.org/2000/svg" width="500" height="500">
<path d="M0 0 C0 0.66 0 1.32 0 2 C1.32 2.33 2.64 2.66 4 3 C4 3.66 4 4.32 4 5 C4.556875 5.2475 5.11375 5.495 5.6875 5.75 C11.66513773 8.98115553 15.7125993 13.86044513 20 19 C20.65355469 19.77730469 21.30710937 20.55460937 21.98046875 21.35546875 C32.90786657 34.65011716 40.01847355 48.59651585 45 65 C45.57814453 66.88332031 45.57814453 66.88332031 46.16796875 68.8046875 C48.59945567 77.24905725 49.77574701 85.22488283 50 94 C50.03996094 95.18078125 50.07992187 96.3615625 50.12109375 97.578125 C50.60274962 124.2108613 44.52223038 151.50980969 28 173 C27.61086426 173.51868652 27.22172852 174.03737305 26.82080078 174.57177734 C9.96124031 197.00743271 -10.52214416 212.26696236 -37.25 221.25 C-37.9821875 221.49621094 -38.714375 221.74242187 -39.46875 221.99609375 C-49.6326266 225.30483775 -59.31582799 226.53398824 -70 227 C-71.32257813 227.06380859 -71.32257813 227.06380859 -72.671875 227.12890625 C-93.05859874 227.61585029 -111.55417176 223.49853061 -130 215 C-130.87269531 214.60296875 -131.74539062 214.2059375 -132.64453125 213.796875 C-146.95846668 206.88492059 -157.87674656 197.14166942 -169 186 C-169.59425781 185.44054687 -170.18851563 184.88109375 -170.80078125 184.3046875 C-172.25717153 182.92732615 -173.63112917 181.46437345 -175 180 C-175 179.01 -175 178.02 -175 177 C-175.99 176.67 -176.98 176.34 -178 176 C-197.16452855 152.54177926 -203.98521386 118.80778019 -201.71484375 89.29296875 C-198.931935 63.92256762 -188.96279085 39.93692965 -173 20 C-172.34 20 -171.68 20 -171 20 C-170.731875 19.360625 -170.46375 18.72125 -170.1875 18.0625 C-169 16 -169 16 -166 15 C-164.79117904 12.99983534 -164.79117904 12.99983534 -164 11 C-163.34 11 -162.68 11 -162 11 C-161.731875 10.360625 -161.46375 9.72125 -161.1875 9.0625 C-160 7 -160 7 -157 6 C-157 5.34 -157 4.68 -157 4 C-110.70096981 -34.6696189 -48.4016722 -32.26778147 0 0 Z M-146.8125 33.9375 C-147.89891955 35.27255288 -148.96003458 36.62845141 -150 38 C-150.67804688 38.88945312 -151.35609375 39.77890625 -152.0546875 40.6953125 C-155.73105236 45.63753193 -159.12308062 50.5544026 -162 56 C-162.32484375 56.59941406 -162.6496875 57.19882813 -162.984375 57.81640625 C-174.93863845 80.57548473 -175.984093 106.54504422 -169 131 C-163.34158719 148.63467753 -151.63596507 165.58394724 -137 177 C-135.8553125 177.94359375 -135.8553125 177.94359375 -134.6875 178.90625 C-126.67015589 185.15232041 -117.51604404 190.4346555 -108 194 C-106.45699219 194.58974609 -106.45699219 194.58974609 -104.8828125 195.19140625 C-85.63631865 201.23488955 -60.69772044 200.43821884 -42 193 C-40.95457031 192.59265625 -39.90914062 192.1853125 -38.83203125 191.765625 C-28.44756962 187.35401923 -19.64108829 181.1742817 -11 174 C-10.18917969 173.39542969 -9.37835938 172.79085937 -8.54296875 172.16796875 C-5.45692803 169.53701237 -3.09067435 166.64156745 -0.625 163.4375 C-0.14530762 162.81762207 0.33438477 162.19774414 0.82861328 161.55908203 C7.67381789 152.61084649 13.25141942 143.67699159 17 133 C17.39445313 131.93523437 17.78890625 130.87046875 18.1953125 129.7734375 C24.19573554 110.51333838 23.21899877 86.73740124 16 68 C15.62746094 66.92621094 15.25492188 65.85242188 14.87109375 64.74609375 C5.95160754 40.90899995 -13.46670044 22.91482669 -36 12 C-72.99831175 -4.25499598 -119.23410413 3.35055185 -146.8125 33.9375 Z " fill="#242424" transform="translate(282,105)"/>
<path d="M0 0 C3.39266429 0.5835494 5.04035138 1.66435323 7.453125 4.08984375 C8.38125 5.01893555 8.38125 5.01893555 9.328125 5.96679688 C9.96234375 6.61712891 10.5965625 7.26746094 11.25 7.9375 C12.22453125 8.90719727 12.22453125 8.90719727 13.21875 9.89648438 C18 14.73297991 18 14.73297991 18 17 C18.556875 17.226875 19.11375 17.45375 19.6875 17.6875 C22.66159588 19.37550036 24.72008865 21.46676517 27 24 C27 24.66 27 25.32 27 26 C27.58910156 26.25136719 28.17820312 26.50273437 28.78515625 26.76171875 C31.27644202 28.15455401 32.62300414 29.6208572 34.4375 31.8125 C37.1633247 35.0323441 39.97479128 38.05440203 43 41 C60 58 77 75 94 92 C94.89428711 92.87769043 95.78857422 93.75538086 96.70996094 94.65966797 C98.79843869 96.79401208 100.01016953 98.44570535 101.25 101.125 C101.56453125 101.78757812 101.8790625 102.45015625 102.203125 103.1328125 C104.65385015 108.87519791 104.81420913 114.28014698 102.75 120.125 C99.23281311 128.50708091 94.26324435 133.3079121 86 137 C79.56896982 139.3580444 72.91944572 138.32955823 66.82118225 135.60061646 C63.58140093 133.76250504 61.15355328 131.62808211 58.43139648 129.08544922 C57.91277511 128.60195951 57.39415373 128.11846981 56.85981655 127.6203289 C51.06661237 122.18593177 45.44946772 116.57554388 39.84765625 110.9453125 C38.73357483 109.82935784 37.61926637 108.71362978 36.50474548 107.59811401 C33.60952506 104.69912777 30.7173197 101.79715268 27.82580566 98.89447021 C24.87985632 95.93822178 21.93101752 92.98485857 18.98242188 90.03125 C13.80490066 84.84423411 8.62985767 79.65475745 3.4566803 74.46340942 C2.6459758 73.65048431 1.8352713 72.8375592 1 72 C-0.33793358 70.65770828 -0.33793358 70.65770828 -1.70289612 69.28829956 C-3.05323317 67.94313807 -4.41750364 66.61128972 -5.8125 65.3125 C-7 64 -7 64 -7 62 C-7.54744873 61.77489746 -8.09489746 61.54979492 -8.65893555 61.31787109 C-11.69185081 59.61053179 -14.00168976 57.34228791 -16.45703125 54.9140625 C-17.21786263 54.16677383 -17.21786263 54.16677383 -17.99406433 53.40438843 C-19.0598617 52.35305388 -20.12290806 51.29892403 -21.18334961 50.2421875 C-22.81246938 48.62503039 -24.45931719 47.02746275 -26.10742188 45.4296875 C-27.14176828 44.40479838 -28.17501104 43.37879397 -29.20703125 42.3515625 C-29.70274124 41.87538483 -30.19845123 41.39920715 -30.70918274 40.90859985 C-32.06567383 39.53369141 -32.06567383 39.53369141 -34 37 C-33.9831543 34.79443359 -33.9831543 34.79443359 -33 33 C-31.03277992 31.61876037 -29.03131672 30.28511874 -27 29 C-26.34 28.01 -25.68 27.02 -25 26 C-24.01 26 -23.02 26 -22 26 C-21.731875 25.360625 -21.46375 24.72125 -21.1875 24.0625 C-20 22 -20 22 -17 21 C-15.79117904 18.99983534 -15.79117904 18.99983534 -15 17 C-14.34 17 -13.68 17 -13 17 C-12.731875 16.360625 -12.46375 15.72125 -12.1875 15.0625 C-11 13 -11 13 -8 12 C-7.7834375 11.1028125 -7.7834375 11.1028125 -7.5625 10.1875 C-6.80355804 7.23605906 -5.19665144 6.06743665 -3 4 C-1.97676564 2.68441297 -0.96873032 1.35622245 0 0 Z " fill="#232323" transform="translate(316,282)"/>
<path d="M0 0 C3.6578218 2.03993908 5.66946174 3.50419262 8 7 C8.83464938 12.69079125 8.04192948 17.0568646 5 22 C4.34 22 3.68 22 3 22 C2.731875 22.845625 2.46375 23.69125 2.1875 24.5625 C1 28 1 28 -0.375 31.0625 C-0.92713338 32.3706314 -1.46727133 33.68384682 -2 35 C-2.35707031 35.86882812 -2.71414062 36.73765625 -3.08203125 37.6328125 C-8.76942215 53.34850044 -7.05943895 69.68924862 -1 85 C-0.00137605 86.66749152 0.99827253 88.33437104 2 90 C2 90.99 2 91.98 2 93 C2.66 93 3.32 93 4 93 C7.66770961 98.38694849 9.0166102 102.47164774 8 109 C6.7671112 111.89728868 5.7754988 113.39683427 3.3125 115.3125 C-1.2640893 116.67310763 -5.26059392 116.8295629 -9.5390625 114.7890625 C-21.26577289 106.26393018 -26.64562209 86.7272318 -29.58984375 73.3125 C-31.18725433 60.41150787 -31.24143171 46.34771943 -27 34 C-26.80664062 33.20722656 -26.61328125 32.41445312 -26.4140625 31.59765625 C-23.75185713 20.93154771 -17.87726842 9.69823959 -10 2 C-6.48315988 -0.02045913 -4.08248151 -0.48989778 0 0 Z " fill="#292929" transform="translate(150,148)"/>
<path d="M0 0 C-12 6 -12 6 -14.34375 7.0625 C-16.22128047 7.88589677 -16.22128047 7.88589677 -16.75 10.125 C-16.8325 10.74375 -16.915 11.3625 -17 12 C-20.33333333 12 -23.66666667 12 -27 12 C-5.9625 -2.98125 -5.9625 -2.98125 0 0 Z " fill="#7D7D7D" transform="translate(164,89)"/>
<path d="M0 0 C0.66 0.33 1.32 0.66 2 1 C1 3 0 5 -1 7 C-1.66 7 -2.32 7 -3 7 C-3.33 7.66 -3.66 8.32 -4 9 C-4.66 8.67 -5.32 8.34 -6 8 C-6.2475 8.639375 -6.495 9.27875 -6.75 9.9375 C-8 12 -8 12 -10.125 12.75 C-11.053125 12.87375 -11.053125 12.87375 -12 13 C-11.34 11.68 -10.68 10.36 -10 9 C-9.01 9 -8.02 9 -7 9 C-6.731875 8.360625 -6.46375 7.72125 -6.1875 7.0625 C-5 5 -5 5 -2 4 C-0.79117904 1.99983534 -0.79117904 1.99983534 0 0 Z " fill="#969696" transform="translate(301,299)"/>
<path d="M0 0 C2 1 2 1 2.75 2.875 C3 5 3 5 1 8 C0.67 7.67 0.34 7.34 0 7 C-0.66 7.66 -1.32 8.32 -2 9 C-2 8.34 -2 7.68 -2 7 C-3.98 7.99 -3.98 7.99 -6 9 C-5.1875 7.0625 -5.1875 7.0625 -4 5 C-3.01 4.67 -2.02 4.34 -1 4 C-0.26676204 1.98491642 -0.26676204 1.98491642 0 0 Z " fill="#6C6C6C" transform="translate(309,290)"/>
<path d="M0 0 C2.3941161 2.3941161 2.29598923 3.03786311 2.3125 6.3125 C2.24152682 10.31280631 1.49933025 12.77169843 -1 16 C-1.66 15.67 -2.32 15.34 -3 15 C-3 13.35 -3 11.7 -3 10 C-2.01 9.67 -1.02 9.34 0 9 C0 6.03 0 3.06 0 0 Z " fill="#626262" transform="translate(156,246)"/>
<path d="M0 0 C0.598125 0.185625 1.19625 0.37125 1.8125 0.5625 C4.16408762 1.22093687 4.16408762 1.22093687 7 0 C7.309375 0.94875 7.61875 1.8975 7.9375 2.875 C8.87394742 5.86080408 8.87394742 5.86080408 10 8 C6.05205855 6.32971708 3.18203882 3.8204435 0 1 C0 0.67 0 0.34 0 0 Z " fill="#8C8C8C" transform="translate(262,126)"/>
<path d="M0 0 C0.66 0.33 1.32 0.66 2 1 C0.4375 3.9375 0.4375 3.9375 -2 7 C-5.75 7.875 -5.75 7.875 -9 8 C-6.14723863 5.06799526 -3.34920216 2.35684596 0 0 Z " fill="#7F7F7F" transform="translate(266,282)"/>
<path d="M0 0 C0 3 0 3 -1.875 5.1875 C-4 7 -4 7 -6 7 C-6.33 6.01 -6.66 5.02 -7 4 C-5.6875 2.5 -5.6875 2.5 -4 1 C-3.01 1 -2.02 1 -1 1 C-0.67 0.67 -0.34 0.34 0 0 Z " fill="#777777" transform="translate(414,408)"/>
<path d="M0 0 C0.33 0.99 0.66 1.98 1 3 C3.00016466 4.20882096 3.00016466 4.20882096 5 5 C5 6.32 5 7.64 5 9 C2 8 2 8 0.25 5.625 C-1 3 -1 3 0 0 Z " fill="#656565" transform="translate(102,273)"/>
<path d="M0 0 C2.97 0.33 5.94 0.66 9 1 C9 2.32 9 3.64 9 5 C2.25 3.375 2.25 3.375 0 0 Z " fill="#626262" transform="translate(141,313)"/>
<path d="M0 0 C1.32 0 2.64 0 4 0 C4.33 0.99 4.66 1.98 5 3 C5.66 3.33 6.32 3.66 7 4 C6.67 5.32 6.34 6.64 6 8 C4.5 6.625 4.5 6.625 3 5 C3 4.34 3 3.68 3 3 C2.01 2.67 1.02 2.34 0 2 C0 1.34 0 0.68 0 0 Z " fill="#777777" transform="translate(278,140)"/>
<path d="M0 0 C1.32 0 2.64 0 4 0 C3.67 2.64 3.34 5.28 3 8 C1.5 6.8125 1.5 6.8125 0 5 C-0.1875 2.3125 -0.1875 2.3125 0 0 Z " fill="#5A5A5A" transform="translate(93,258)"/>
<path d="M0 0 C-3.78187881 1.83691257 -5.94568308 2.15837626 -10 1 C-9.67 0.34 -9.34 -0.32 -9 -1 C-5.26793158 -2.21040057 -3.31957615 -2.0901035 0 0 Z " fill="#575757" transform="translate(251,324)"/>
<path d="M0 0 C0.66 0.33 1.32 0.66 2 1 C-0.31 3.31 -2.62 5.62 -5 8 C-5.66 7.67 -6.32 7.34 -7 7 C-7 6.01 -7 5.02 -7 4 C-5.824375 3.566875 -5.824375 3.566875 -4.625 3.125 C-1.90328368 2.15087746 -1.90328368 2.15087746 0 0 Z " fill="#808080" transform="translate(295,293)"/>
<path d="M0 0 C1.485 0.99 1.485 0.99 3 2 C3.1875 4.625 3.1875 4.625 3 7 C1.68 6.34 0.36 5.68 -1 5 C-0.67 3.35 -0.34 1.7 0 0 Z " fill="#191919" transform="translate(154,153)"/>
<path d="M0 0 C0.6875 1.8125 0.6875 1.8125 1 4 C-0.1875 5.8125 -0.1875 5.8125 -2 7 C-4.1875 6.6875 -4.1875 6.6875 -6 6 C-4 4 -2 2 0 0 Z " fill="#171717" transform="translate(294,290)"/>
<path d="M0 0 C2.0625 0.4375 2.0625 0.4375 4 1 C2.49336217 4.01327566 -0.03166411 4.61056618 -3 6 C-1.125 1.125 -1.125 1.125 0 0 Z " fill="#616161" transform="translate(315,283)"/>
<path d="M0 0 C2 1 2 1 3.125 4.0625 C3.41375 5.031875 3.7025 6.00125 4 7 C1.03 6.505 1.03 6.505 -2 6 C-1.34 5.67 -0.68 5.34 0 5 C0 3.35 0 1.7 0 0 Z " fill="#7C7C7C" transform="translate(119,250)"/>
<path d="M0 0 C2.18975773 3.28463659 2.99806563 6.20696275 4 10 C2.68 9.67 1.36 9.34 0 9 C0 6.03 0 3.06 0 0 Z " fill="#6B6B6B" transform="translate(114,238)"/>
<path d="M0 0 C0.66 0.33 1.32 0.66 2 1 C1 3 0 5 -1 7 C-1.66 7 -2.32 7 -3 7 C-3.33 7.66 -3.66 8.32 -4 9 C-4 5.00095031 -2.27413033 3.19799578 0 0 Z " fill="#6A6A6A" transform="translate(301,299)"/>
</svg>
